<?xml version="1.0" encoding="utf-8"?>
<!-- Generator: Adobe Illustrator 16.0.0, SVG Export Plug-In . SVG Version: 6.00 Build 0)  -->
<!DOCTYPE svg PUBLIC "-//W3C//DTD SVG 1.1//EN" "http://www.w3.org/Graphics/SVG/1.1/DTD/svg11.dtd">
<svg version="1.1" id="Calque_1" xmlns="http://www.w3.org/2000/svg" xmlns:xlink="http://www.w3.org/1999/xlink" x="0px" y="0px"
	 width="20px" height="20px" viewBox="0 0 20 20" enable-background="new 0 0 20 20" xml:space="preserve">
<pattern  width="75" height="75" patternUnits="userSpaceOnUse" id="Nouvelle_nuance_de_motif_6" viewBox="0 -75 75 75" overflow="visible">
	<g>
		<polygon fill="none" points="0,0 75,0 75,-75 0,-75 		"/>
		<polygon fill="#8651D3" points="75,0 0,0 0,-75 75,-75 		"/>
	</g>
</pattern>
<pattern  id="SVGID_1_" xlink:href="#Nouvelle_nuance_de_motif_6" patternTransform="matrix(0.4762 0 0 0.4882 -4278.5205 -4232.7554)">
</pattern>
<path fill-rule="evenodd" clip-rule="evenodd" fill="url(#SVGID_1_)" d="M20,10.628c-0.011,0.13-0.021,0.26-0.031,0.389
	c-0.095,1.346-0.43,2.626-1.029,3.824c-1.232,2.464-3.123,4.168-5.666,5.107c-0.129,0.047-0.26,0.061-0.394,0.034
	c-0.231-0.045-0.377-0.234-0.378-0.492c-0.001-0.39,0.004-0.779,0.006-1.169c0.003-0.542,0.008-1.084,0.007-1.623
	c-0.001-0.487-0.061-0.964-0.288-1.398c-0.098-0.185-0.23-0.35-0.348-0.526c0.096-0.012,0.21-0.028,0.324-0.044
	c0.727-0.109,1.431-0.288,2.083-0.645c0.996-0.544,1.603-1.399,1.894-2.501c0.199-0.754,0.265-1.525,0.2-2.302
	c-0.07-0.844-0.383-1.59-0.927-2.231c-0.06-0.069-0.065-0.123-0.037-0.209c0.228-0.713,0.205-1.429,0.011-2.144
	c-0.032-0.121-0.08-0.236-0.11-0.357c-0.024-0.096-0.084-0.129-0.17-0.121c-0.198,0.018-0.4,0.021-0.593,0.064
	c-0.56,0.127-1.062,0.395-1.55,0.693c-0.146,0.089-0.284,0.188-0.43,0.277c-0.028,0.019-0.074,0.028-0.106,0.019
	c-0.959-0.267-1.937-0.364-2.927-0.316C8.884,4.989,8.238,5.092,7.604,5.27C7.548,5.286,7.506,5.28,7.458,5.247
	c-0.546-0.37-1.111-0.699-1.74-0.899C5.454,4.263,5.186,4.208,4.906,4.219C4.819,4.223,4.766,4.249,4.731,4.345
	C4.456,5.132,4.373,5.931,4.606,6.74C4.653,6.904,4.64,7.005,4.532,7.137c-0.537,0.658-0.826,1.424-0.87,2.28
	c-0.049,0.932,0.047,1.849,0.392,2.723c0.411,1.041,1.15,1.744,2.158,2.162c0.603,0.251,1.235,0.382,1.88,0.463
	c0.026,0.004,0.054,0.008,0.084,0.012c-0.004,0.014-0.004,0.022-0.008,0.026c-0.337,0.332-0.507,0.75-0.583,1.21
	c-0.017,0.104-0.056,0.154-0.149,0.191C6.97,16.386,6.495,16.477,6,16.368c-0.569-0.123-0.98-0.477-1.285-0.968
	c-0.217-0.35-0.466-0.666-0.807-0.896c-0.307-0.207-0.64-0.297-1.006-0.236c-0.096,0.017-0.204,0.027-0.239,0.139
	c-0.035,0.107,0.038,0.187,0.106,0.251c0.082,0.08,0.168,0.161,0.266,0.218c0.24,0.137,0.42,0.334,0.577,0.557
	c0.231,0.325,0.426,0.671,0.574,1.045c0.229,0.573,0.658,0.917,1.226,1.091c0.474,0.145,0.958,0.157,1.445,0.108
	c0.215-0.021,0.428-0.054,0.655-0.083c0,0.031,0,0.064,0,0.098c0.003,0.579-0.003,1.161,0.012,1.742
	c0.012,0.479-0.37,0.651-0.721,0.529c-1.681-0.581-3.111-1.555-4.288-2.913c-1.086-1.253-1.825-2.696-2.221-4.322
	c-0.156-0.646-0.251-1.299-0.279-1.964C0.014,10.724,0.005,10.685,0,10.646c0-0.256,0-0.513,0-0.769
	c0.005-0.033,0.012-0.066,0.014-0.099c0.03-0.731,0.135-1.45,0.321-2.155c0.608-2.295,1.838-4.162,3.69-5.588
	c1.551-1.192,3.303-1.854,5.236-2.003C9.385,0.021,9.51,0.01,9.634,0c0.244,0,0.488,0,0.732,0c0.03,0.005,0.06,0.011,0.09,0.014
	c0.219,0.018,0.438,0.029,0.655,0.053c1.052,0.112,2.058,0.4,3.02,0.846c3.332,1.551,5.569,4.84,5.839,8.582
	C19.979,9.622,19.99,9.749,20,9.876C20,10.127,20,10.378,20,10.628z"/>
</svg>
