<?xml version="1.0" encoding="utf-8"?>
<!-- Generator: Adobe Illustrator 16.0.0, SVG Export Plug-In . SVG Version: 6.00 Build 0)  -->
<!DOCTYPE svg PUBLIC "-//W3C//DTD SVG 1.1//EN" "http://www.w3.org/Graphics/SVG/1.1/DTD/svg11.dtd">
<svg version="1.1" id="Calque_1" xmlns="http://www.w3.org/2000/svg" xmlns:xlink="http://www.w3.org/1999/xlink" x="0px" y="0px"
	 width="20px" height="20px" viewBox="0 0 20 20" enable-background="new 0 0 20 20" xml:space="preserve">
<pattern  width="75" height="75" patternUnits="userSpaceOnUse" id="Nouvelle_nuance_de_motif_6" viewBox="0 -75 75 75" overflow="visible">
	<g>
		<polygon fill="none" points="0,0 75,0 75,-75 0,-75 		"/>
		<polygon fill="#8651D3" points="75,0 0,0 0,-75 75,-75 		"/>
	</g>
</pattern>
<g>
	
		<pattern  id="SVGID_1_" xlink:href="#Nouvelle_nuance_de_motif_6" patternTransform="matrix(0.9739 0 0 0.9739 -182.1953 -103.8159)">
	</pattern>
	<path fill-rule="evenodd" clip-rule="evenodd" fill="url(#SVGID_1_)" d="M20,18.634C20,19.388,19.389,20,18.634,20H1.366
		C0.611,20,0,19.388,0,18.634V1.366C0,0.612,0.611,0,1.366,0h17.268C19.389,0,20,0.612,20,1.366V18.634z"/>
	<g>
		<path fill="#FFFFFF" d="M5.044,6.269c-0.898,0-1.48-0.634-1.48-1.427c0-0.81,0.6-1.427,1.515-1.427s1.479,0.617,1.498,1.427
			c0,0.793-0.583,1.427-1.515,1.427H5.044z M3.722,16.009V7.396h2.678v8.613H3.722z"/>
		<path fill="#FFFFFF" d="M8.547,10.144c0-1.074-0.036-1.973-0.069-2.748h2.324l0.123,1.197h0.053
			c0.353-0.563,1.216-1.391,2.659-1.391c1.763,0,3.083,1.181,3.083,3.717v5.09h-2.676v-4.773c0-1.109-0.389-1.867-1.357-1.867
			c-0.74,0-1.18,0.511-1.374,1.004c-0.07,0.176-0.087,0.424-0.087,0.67v4.967H8.547V10.144z"/>
	</g>
</g>
</svg>
